<?xml version="1.0" standalone="no"?>
<!DOCTYPE svg PUBLIC "-//W3C//DTD SVG 20010904//EN"
 "http://www.w3.org/TR/2001/REC-SVG-20010904/DTD/svg10.dtd">
<svg version="1.0" xmlns="http://www.w3.org/2000/svg"
 width="1024.000000pt" height="1024.000000pt" viewBox="0 0 1024.000000 1024.000000"
 preserveAspectRatio="xMidYMid meet">

<g transform="translate(0.000000,1024.000000) scale(0.100000,-0.100000)"
fill="#000000" stroke="none">
<path d="M0 5560 c0 -2574 2 -4680 4 -4680 2 0 15 9 28 20 45 37 173 130 180
130 11 0 10 -14 -3 -47 -10 -25 -22 -68 -49 -181 -10 -41 8 -62 56 -62 28 0
42 -9 79 -48 40 -42 59 -72 37 -58 -4 2 -39 -2 -77 -10 -38 -8 -75 -12 -82
-10 -7 3 -25 -1 -40 -9 -15 -8 -52 -15 -80 -15 l-53 0 0 -295 0 -295 3178 0
c2163 1 3171 4 3160 11 -18 10 -25 54 -10 63 17 10 35 -13 34 -43 l-1 -31
1226 0 1226 0 64 30 c85 40 99 38 73 -11 -10 -19 -5 -19 240 -19 l250 0 0 80
0 80 320 0 320 0 0 -80 0 -80 80 0 80 0 0 2739 c0 2314 -2 2740 -14 2744 -16
6 -26 61 -14 79 6 10 8 10 8 0 0 -7 5 -10 10 -7 7 4 10 787 10 2346 l0 2339
-1097 0 -1096 0 7 -95 c4 -55 3 -95 -2 -95 -20 0 -128 106 -147 144 -15 31
-27 42 -47 44 -37 4 -63 -24 -84 -93 -20 -63 -60 -105 -100 -105 -17 0 -25 7
-30 25 -7 28 0 115 11 153 l7 22 -3831 0 -3831 0 0 -4680z m7855 4618 c-4 -13
-9 -32 -12 -42 -5 -17 -6 -17 -14 -3 -6 9 -5 26 1 41 12 32 34 35 25 4z
m-2157 -30 c-2 -17 -10 -23 -28 -23 -18 0 -26 6 -28 23 -3 19 1 22 28 22 27 0
31 -3 28 -22z m-2829 -54 c11 -39 7 -60 -15 -68 -8 -3 -14 -20 -15 -38 l-1
-33 -8 28 c-5 15 -20 37 -33 47 -18 14 -24 26 -19 42 8 31 34 56 59 57 17 1
24 -7 32 -35z m-1079 -9 c0 -3 -31 -46 -70 -97 -106 -139 -94 -171 43 -121
143 53 141 53 171 34 l27 -18 -36 -31 c-19 -17 -60 -43 -91 -58 -31 -15 -64
-33 -73 -41 -9 -7 -29 -24 -45 -36 l-28 -23 12 -69 c7 -39 14 -103 17 -144 l5
-74 -44 37 c-24 20 -53 49 -63 63 -49 67 -61 76 -86 70 -13 -3 -38 -19 -55
-34 -16 -15 -55 -47 -85 -70 -30 -24 -74 -60 -99 -82 -25 -21 -55 -42 -68 -46
-35 -10 -39 19 -8 60 15 19 24 40 21 46 -7 11 98 119 115 119 6 0 10 9 10 20
0 12 7 32 16 46 24 36 9 42 -39 16 -49 -26 -72 -27 -111 -7 -15 8 -36 15 -45
15 -9 0 -24 7 -35 15 -17 13 -14 16 40 41 33 15 102 44 154 65 l95 37 -3 46
c-4 51 -7 49 70 46 61 -2 91 15 187 105 71 66 101 87 101 70z m4000 -50 c30
-7 80 -16 110 -20 74 -9 314 -80 405 -121 17 -7 55 -22 86 -34 30 -11 80 -35
110 -53 30 -18 70 -39 89 -46 65 -26 195 -94 250 -131 30 -20 78 -49 105 -65
28 -15 77 -49 110 -75 33 -25 71 -53 85 -62 14 -8 39 -28 56 -44 16 -16 52
-50 80 -75 27 -25 61 -61 75 -80 15 -19 46 -54 69 -79 61 -65 250 -302 250
-314 0 -3 15 -29 33 -58 31 -50 42 -70 86 -173 96 -219 127 -422 97 -640 -21
-150 -71 -403 -90 -452 -8 -21 -24 -72 -36 -113 -111 -379 -250 -682 -435
-945 -35 -49 -88 -126 -118 -170 -30 -44 -73 -100 -94 -125 -22 -25 -58 -72
-80 -105 -50 -74 -141 -141 -210 -155 -26 -5 -70 -17 -98 -25 -49 -16 -116
-26 -305 -45 -123 -12 -329 -12 -555 0 -311 17 -370 26 -730 106 -33 7 -116
34 -185 59 -69 26 -141 51 -160 56 -19 5 -64 19 -100 32 -52 18 -66 27 -68 46
l-4 24 214 -6 c172 -4 223 -2 267 10 42 12 62 13 85 5 53 -18 147 -31 246 -33
52 -2 100 -6 105 -10 6 -4 53 -10 104 -14 52 -3 98 -8 102 -10 9 -6 113 -21
269 -40 212 -26 414 -9 515 43 72 36 215 166 215 194 0 4 15 30 33 56 18 26
39 63 46 82 24 64 44 105 63 132 11 16 17 32 13 38 -3 5 -1 18 4 28 9 16 25
20 111 24 78 4 105 9 120 23 11 10 20 21 20 24 0 6 -107 140 -195 246 -69 82
-95 118 -95 131 0 8 9 54 19 102 11 48 25 154 32 236 10 127 15 152 34 175 31
37 108 199 148 311 19 52 49 163 67 245 17 83 35 159 40 170 5 11 12 92 15
180 6 148 5 164 -15 217 -36 96 -48 101 -264 102 -250 1 -350 -24 -591 -151
-142 -75 -209 -104 -280 -123 -38 -11 -97 -28 -130 -38 -64 -21 -84 -18 -134
17 -67 48 -247 91 -378 91 l-103 0 -21 43 c-29 57 -162 206 -266 297 -15 14
-57 51 -93 83 -103 93 -273 177 -358 177 -54 0 -102 -61 -141 -176 -47 -142
-53 -192 -56 -471 -2 -223 -7 -371 -14 -475 0 -9 -23 -43 -51 -74 -117 -134
-189 -278 -206 -411 -6 -51 -9 -55 -58 -87 -65 -44 -195 -106 -220 -106 -25 0
-98 -21 -113 -33 -21 -16 -15 -44 17 -80 18 -22 50 -89 84 -178 69 -183 133
-305 209 -395 73 -88 133 -134 212 -164 l60 -23 1 -56 c0 -96 70 -190 197
-266 62 -37 85 -65 54 -65 -7 0 -64 19 -127 41 -63 23 -137 50 -165 59 -85 30
-179 71 -210 94 -16 11 -73 42 -125 67 -119 57 -231 137 -336 239 l-81 79 -7
121 c-4 68 -15 147 -25 182 -11 35 -22 99 -25 143 -3 44 -13 116 -21 159 -10
53 -15 142 -15 279 0 335 41 642 113 852 30 86 53 149 134 370 51 140 184 363
288 485 72 85 209 206 303 269 195 130 253 163 442 257 145 71 458 168 660
203 71 13 359 3 430 -14z m-1723 -16 c3 -12 11 -18 19 -15 8 3 14 1 14 -4 0
-13 -37 -50 -43 -43 -3 2 -15 -1 -27 -7 -12 -7 -20 -8 -16 -2 3 5 -1 15 -9 22
-19 16 -19 29 0 50 21 23 56 23 62 -1z m4984 -350 c-24 -20 -57 -26 -46 -9 3
6 1 10 -6 10 -25 0 6 18 36 22 41 5 44 0 16 -23z m1149 -51 c0 -6 -16 -40 -35
-75 -38 -69 -44 -103 -20 -123 22 -19 85 -117 85 -133 0 -12 -7 -14 -32 -7
-18 4 -54 11 -80 14 l-48 6 -34 -68 c-20 -40 -54 -86 -83 -112 l-48 -45 -3 29
c-2 16 1 48 7 72 6 24 11 61 11 84 0 40 -1 40 -22 26 -13 -8 -39 -17 -58 -21
-19 -4 -73 -27 -120 -51 -47 -23 -86 -41 -88 -39 -2 2 -1 18 3 36 10 47 108
146 155 159 53 14 57 46 18 133 -17 37 -28 70 -25 74 4 3 28 1 55 -6 95 -25
121 -25 148 0 18 17 51 29 107 40 105 21 107 21 107 7z m-1590 -372 c0 -3 -4
-8 -10 -11 -5 -3 -10 -1 -10 4 0 6 5 11 10 11 6 0 10 -2 10 -4z m-706 -78 c8
-13 6 -22 -8 -37 -24 -26 -48 -27 -71 -1 -17 19 -17 21 0 40 22 24 63 23 79
-2z m-5416 -34 c2 -11 -3 -26 -11 -32 -18 -16 -50 17 -41 42 9 24 48 16 52
-10z m768 -55 c9 -15 -11 -33 -30 -26 -9 4 -13 13 -10 22 7 17 30 20 40 4z
m4624 -19 c0 -5 -4 -10 -10 -10 -5 0 -10 5 -10 10 0 6 5 10 10 10 6 0 10 -4
10 -10z m-3192 -112 c76 -51 242 -227 306 -324 33 -49 70 -102 83 -117 37 -46
31 -62 -37 -87 -109 -41 -206 -104 -297 -194 -63 -62 -93 -85 -107 -82 -10 3
-41 -4 -69 -15 -89 -35 -97 -10 -41 134 32 81 37 103 38 187 0 52 -5 123 -13
157 -14 57 -13 70 6 165 19 99 59 207 76 208 5 0 29 -14 55 -32z m3884 -55 c6
-24 -12 -36 -37 -27 -8 4 -21 2 -28 -4 -12 -11 -13 -8 -8 53 1 6 11 15 24 20
24 11 39 -1 49 -42z m-7892 31 c0 -2 -7 -4 -15 -4 -8 0 -15 4 -15 10 0 5 7 7
15 4 8 -4 15 -8 15 -10z m2833 -36 c-89 -98 -224 -446 -252 -652 -6 -43 -13
-81 -15 -85 -10 -16 -26 -262 -26 -390 0 -75 6 -164 13 -198 8 -35 12 -63 11
-63 -1 0 -44 24 -94 52 -160 91 -293 256 -292 359 1 21 12 72 26 113 14 41 26
83 26 94 0 22 36 110 55 132 7 8 16 32 19 54 4 21 16 57 26 80 11 22 36 82 55
133 37 92 39 126 10 137 -24 9 -19 69 8 93 88 80 325 180 431 182 l39 1 -40
-42z m92 -75 c-15 -37 -30 -77 -35 -88 -15 -32 -80 -206 -95 -250 -90 -274
-131 -570 -117 -845 5 -91 6 -169 4 -173 -2 -5 -17 4 -33 19 -65 62 -82 250
-50 529 12 99 28 207 36 240 7 33 17 78 20 100 7 39 45 158 83 260 34 89 73
162 116 211 23 27 53 65 67 84 l24 35 3 -27 c2 -15 -9 -57 -23 -95z m5605 -59
c0 -8 -4 -12 -10 -9 -5 3 -10 10 -10 16 0 5 5 9 10 9 6 0 10 -7 10 -16z
m-2185 -234 c0 -77 -12 -185 -44 -396 -13 -87 -27 -139 -49 -187 -18 -37 -46
-96 -63 -132 -34 -73 -102 -146 -198 -212 -34 -24 -65 -43 -69 -43 -4 0 -27
32 -52 70 -45 71 -193 225 -331 346 -123 106 -162 228 -107 332 16 31 125 95
235 138 48 19 105 46 126 60 49 32 165 75 247 90 36 7 119 12 185 11 l120 -2
0 -75z m-4060 43 c-9 -24 -69 -220 -93 -308 -11 -38 -30 -107 -43 -152 l-24
-83 -6 43 c-18 123 15 302 83 447 29 62 37 70 65 70 20 0 24 -4 18 -17z m-847
-285 c17 -17 15 -68 -2 -68 -8 0 -22 -10 -32 -22 -10 -14 -14 -16 -11 -6 3 9
1 30 -5 46 -18 46 19 81 50 50z m5902 -206 c0 -2 -8 -19 -19 -36 -14 -23 -20
-60 -25 -141 -10 -181 -69 -511 -120 -675 -95 -300 -128 -368 -344 -698 -35
-54 -78 -111 -95 -128 -18 -17 -57 -58 -88 -90 -61 -64 -126 -124 -96 -88 9
11 17 26 17 33 0 18 36 67 88 121 23 25 46 56 49 70 8 33 45 90 59 90 6 0 16
10 22 23 151 301 218 460 295 702 105 329 143 493 179 782 l11 91 34 -25 c18
-14 33 -28 33 -31z m870 -13 c0 -5 5 -7 10 -4 6 3 10 4 10 1 0 -2 3 -11 6 -20
4 -10 1 -16 -9 -16 -9 0 -18 -13 -22 -31 -6 -25 -11 -30 -33 -27 -18 2 -28 11
-35 32 -9 26 -6 32 17 53 28 24 56 30 56 12z m-773 -56 c78 -45 155 -182 189
-334 31 -138 15 -399 -31 -507 -38 -90 -132 -263 -180 -332 -58 -82 -154 -177
-225 -222 -37 -24 -173 -58 -231 -58 -47 0 -50 2 -44 21 4 11 19 40 34 62 75
114 92 144 139 239 28 57 55 122 61 145 12 43 24 57 50 58 8 0 17 7 19 15 5
13 3 13 -11 1 -21 -17 -21 -14 -1 40 8 24 19 64 24 89 5 25 21 95 35 155 37
162 65 355 71 485 7 168 10 182 37 174 12 -4 41 -18 64 -31z m1497 -59 c8 -21
-1 -34 -24 -34 -22 0 -34 15 -26 35 7 20 42 19 50 -1z m-564 -29 c0 -16 -6
-25 -15 -25 -18 0 -20 21 -3 38 17 17 18 16 18 -13z m-7454 -160 c70 -34 74
-38 104 -99 16 -35 30 -69 30 -75 0 -7 9 -40 21 -74 19 -54 20 -78 16 -192 -3
-71 -10 -164 -16 -205 -16 -107 -67 -277 -102 -333 -16 -27 -29 -54 -29 -60 0
-29 -51 -66 -106 -77 -75 -16 -144 -2 -236 47 -90 49 -118 90 -142 213 -3 14
-10 52 -17 85 -27 142 16 438 91 615 27 64 125 165 173 179 70 20 136 13 213
-24z m179 13 c84 -20 243 -83 309 -122 88 -51 179 -135 200 -184 9 -20 22 -45
27 -56 21 -38 34 -146 34 -288 l0 -146 -50 -97 c-39 -76 -63 -110 -110 -152
-125 -113 -287 -176 -481 -186 -65 -3 -75 -1 -104 23 l-31 26 20 24 c12 14 34
39 50 55 67 70 142 270 174 465 29 175 23 279 -28 437 -34 106 -58 148 -108
196 l-29 28 44 -7 c23 -3 61 -10 83 -16z m-1092 -212 c3 -8 1 -31 -4 -50 -8
-28 -15 -36 -33 -36 -33 0 -40 36 -15 72 22 30 44 36 52 14z m4804 -213 c1
-10 5 -31 9 -46 6 -26 4 -28 -17 -25 -28 4 -36 35 -19 67 13 26 25 27 27 4z
m-1641 -55 c35 -27 34 -27 109 -113 84 -97 76 -77 134 -343 11 -50 31 -103 49
-132 17 -28 27 -50 22 -50 -20 0 -102 91 -145 161 -24 39 -113 216 -120 239
-4 14 -16 43 -26 65 -83 185 -88 223 -23 173z m-1017 -116 c14 -26 -13 -64
-42 -60 -27 4 -50 47 -35 65 16 20 66 16 77 -5z m6938 -38 c14 -15 21 -30 16
-33 -5 -3 -12 -14 -16 -23 -3 -10 -15 -18 -26 -18 -11 0 -21 -5 -23 -12 -2 -6
-10 -8 -16 -4 -17 10 -15 26 3 26 8 0 15 7 15 16 0 10 -6 14 -14 11 -16 -6
-10 29 8 50 16 18 26 16 53 -13z m-5298 -81 c106 -32 158 -75 137 -115 -41
-79 -99 -153 -143 -182 -30 -19 -66 -58 -96 -101 -26 -39 -56 -71 -65 -73 -28
-4 -72 16 -78 35 -3 10 -10 27 -16 38 -6 10 -21 39 -35 64 -22 42 -89 309 -79
318 2 3 10 6 18 7 7 2 20 6 28 9 47 19 265 19 329 0z m1601 -314 c160 -9 233
-15 420 -34 36 -4 70 -10 75 -15 6 -4 44 -11 85 -14 41 -4 94 -12 117 -18 l43
-10 -42 -52 c-38 -45 -71 -83 -103 -116 -5 -6 -37 -30 -70 -54 -81 -57 -186
-103 -266 -116 -74 -11 -561 -14 -821 -5 -185 7 -171 10 -367 -81 l-73 -34
-202 3 -201 2 -84 38 c-108 49 -137 70 -172 125 -37 58 -38 77 -1 27 46 -65
115 -125 111 -97 -1 4 0 18 1 32 2 17 4 20 7 8 4 -17 37 -33 50 -25 9 6 99 -8
126 -18 10 -4 17 -3 15 3 -2 5 8 24 20 42 17 22 30 30 43 27 25 -7 103 14 155
41 39 20 106 78 238 205 67 64 160 109 266 127 65 11 369 27 425 22 17 -1 109
-7 205 -13z m-2513 -122 c94 -88 241 -199 295 -221 18 -8 68 -34 111 -59 42
-24 117 -61 165 -82 48 -21 114 -50 147 -66 154 -70 273 -115 460 -174 66 -21
133 -45 149 -53 32 -16 272 -89 321 -97 17 -3 44 -10 60 -15 17 -5 62 -14 100
-19 39 -6 106 -17 150 -25 187 -34 936 -44 1064 -15 25 6 81 17 124 24 71 13
172 46 234 77 13 6 26 9 29 5 13 -13 -40 -236 -70 -294 -28 -56 -23 -54 -371
-93 -106 -12 -305 -11 -435 0 -58 6 -206 14 -330 19 -207 9 -240 13 -420 51
-233 50 -238 51 -365 84 -361 95 -925 281 -1073 355 -251 124 -406 225 -508
331 -71 74 -78 102 -49 198 4 12 11 22 15 22 5 0 14 16 20 35 14 42 56 95 76
95 7 0 53 -37 101 -83z m3300 11 c-3 -7 -20 -49 -38 -93 -18 -44 -36 -84 -41
-90 -5 -5 -29 -46 -54 -90 -24 -44 -57 -93 -72 -108 -44 -47 -136 -114 -173
-126 -80 -26 -195 -51 -214 -47 -11 3 -67 8 -125 11 -58 4 -171 18 -252 31
-82 13 -176 27 -210 31 -35 3 -69 10 -76 16 -7 5 -85 13 -175 18 -89 4 -173
12 -187 17 -24 9 -24 10 20 33 51 27 62 27 710 20 193 -2 324 0 355 7 80 17
161 50 212 88 27 19 57 38 68 43 23 11 132 122 194 199 40 48 70 69 58 40z
m-4843 -130 c3 -29 6 -87 6 -128 0 -41 7 -111 15 -154 8 -44 14 -80 12 -82 -2
-2 -20 -5 -41 -8 -20 -3 -43 -9 -49 -14 -7 -6 -48 -16 -92 -23 -50 -7 -100
-23 -132 -41 -29 -15 -55 -28 -57 -28 -5 0 -18 84 -22 140 -1 25 -8 90 -14
145 -6 55 -12 118 -13 139 l-2 39 100 1 c55 1 106 5 112 9 7 4 27 10 45 12 18
2 51 14 73 25 21 11 42 20 46 20 3 0 9 -24 13 -52z m440 -104 c15 -21 16 -30
7 -50 -6 -13 -17 -24 -25 -24 -8 0 -19 -7 -24 -17 -9 -14 -10 -14 -16 4 -4 12
-18 29 -32 38 l-26 16 39 29 c46 36 53 36 77 4z m2014 -34 c3 -8 -5 -6 -21 6
-15 10 -27 23 -27 28 0 12 43 -18 48 -34z m-3932 -18 c18 -11 -2 -52 -26 -52
-23 0 -27 29 -8 48 14 14 19 14 34 4z m7686 -122 c-38 -24 -52 -25 -52 -6 0
17 15 24 55 25 l30 1 -33 -20z m52 -36 c4 -9 4 -19 1 -22 -3 -3 -5 0 -5 6 0 7
-7 12 -15 12 -8 0 -15 5 -15 10 0 16 27 11 34 -6z m-6139 -125 c-4 -5 1 -9 11
-9 14 0 14 -2 3 -16 -11 -14 -9 -16 21 -13 22 2 48 -5 70 -19 19 -12 40 -22
46 -22 6 0 22 -8 35 -19 13 -10 60 -29 104 -41 72 -20 94 -22 215 -17 87 4
162 13 210 26 41 12 89 21 105 20 30 0 30 0 9 -17 -35 -30 -46 -58 -32 -82 20
-32 138 -97 191 -104 26 -4 47 -11 47 -15 0 -4 -19 -16 -42 -28 -24 -11 -67
-32 -96 -47 -42 -21 -74 -28 -148 -33 -52 -3 -97 -9 -99 -14 -3 -4 19 -21 47
-37 29 -16 73 -45 98 -63 25 -19 78 -52 119 -74 40 -22 74 -44 75 -49 0 -5
-19 -20 -44 -34 -42 -22 -52 -23 -140 -18 -96 6 -177 23 -219 45 -46 25 -44
-5 3 -55 25 -26 46 -54 46 -61 0 -20 -50 -28 -84 -13 -17 7 -59 23 -93 36 -34
13 -102 44 -153 71 -76 39 -94 45 -110 35 -16 -10 -22 -3 -59 71 -23 46 -41
90 -41 98 0 8 -5 20 -11 26 -9 9 -5 23 15 57 33 56 33 73 -2 116 -42 52 -78
129 -86 183 -9 57 -12 72 -22 111 -5 21 -4 27 5 22 6 -4 9 -12 6 -17z m-57
-59 c33 -137 50 -182 108 -282 7 -11 9 -28 7 -39 -9 -31 -86 -74 -180 -98 -48
-13 -121 -34 -161 -48 -41 -13 -87 -23 -104 -21 -27 3 -33 9 -44 47 -7 24 -20
98 -29 165 -9 67 -20 137 -25 157 -13 49 -13 49 14 49 14 0 36 13 53 30 15 17
33 30 40 30 6 0 13 5 15 11 2 6 21 15 43 19 22 5 67 16 100 24 33 8 80 14 105
13 l45 -2 13 -55z m2286 -209 c3 -4 20 -11 38 -14 18 -3 45 -10 60 -16 l26
-10 -19 -88 c-40 -179 -62 -280 -74 -348 -8 -38 -22 -108 -33 -155 -11 -47
-23 -107 -26 -135 -4 -27 -11 -63 -15 -80 -5 -16 -16 -84 -25 -150 -9 -66 -21
-147 -26 -180 -30 -196 -35 -553 -10 -750 24 -195 24 -202 1 -231 -31 -40 -28
-58 10 -50 22 4 29 2 26 -7 -2 -6 -28 -15 -58 -18 -30 -4 -61 -10 -69 -13 -13
-5 -20 17 -39 131 -12 76 -32 188 -44 248 -12 62 -20 147 -20 195 1 80 28 346
39 381 2 9 9 61 14 115 5 55 16 151 25 214 9 63 20 152 25 197 21 169 125 655
162 746 11 27 22 34 32 18z m5826 -222 c0 -14 -16 -11 -29 5 -10 12 -8 13 8 9
12 -3 21 -9 21 -14z m-7995 -52 c10 -23 41 -91 70 -152 29 -60 76 -159 105
-220 29 -60 54 -126 57 -145 5 -49 -15 -82 -57 -93 -19 -5 -44 -17 -55 -26
-11 -10 -43 -31 -72 -46 -42 -22 -60 -27 -95 -22 -66 9 -94 52 -144 221 -23
78 -63 208 -89 290 -25 82 -43 152 -38 157 8 8 212 72 258 81 32 7 40 0 60
-45z m6785 -347 c-17 -51 -27 -96 -23 -100 4 -4 55 -22 113 -40 l105 -32 -25
-20 c-32 -26 -188 -118 -200 -118 -15 0 -57 -61 -85 -123 -15 -31 -30 -57 -35
-57 -4 0 -19 22 -32 49 -14 26 -35 65 -47 85 l-23 36 -78 0 c-43 0 -90 -4
-104 -10 -21 -8 -28 -6 -41 12 -11 17 -18 19 -27 10 -17 -17 34 -66 63 -59 24
7 49 -1 49 -15 0 -10 -66 -4 -142 15 -40 9 -48 15 -48 34 0 12 12 36 28 52 28
31 180 114 193 105 8 -5 -8 -61 -23 -81 -6 -7 -8 -18 -6 -25 3 -7 25 7 56 36
52 49 52 49 52 111 0 34 -6 78 -14 97 -8 19 -18 58 -22 86 -6 48 -5 52 14 52
27 0 84 -55 111 -107 12 -24 25 -43 29 -43 4 0 48 39 97 87 59 57 91 81 93 71
2 -8 -11 -57 -28 -108z m-1200 25 c21 -7 32 -29 24 -49 -6 -16 -51 -38 -57
-28 -12 20 -18 72 -8 72 6 0 12 15 12 33 2 29 2 30 6 5 2 -15 12 -30 23 -33z
m1750 21 c0 -8 -4 -18 -10 -21 -5 -3 -10 -1 -10 5 0 6 -4 8 -10 5 -6 -3 -7 1
-4 9 8 20 34 21 34 2z m30 -40 c0 -2 -7 -9 -15 -16 -13 -11 -14 -10 -9 4 5 14
24 23 24 12z m-908 -212 c-8 -41 -18 -35 -14 8 3 23 8 35 12 29 4 -7 5 -23 2
-37z m-2708 -40 c14 -5 42 -71 34 -79 -2 -3 -20 3 -39 13 -24 12 -35 25 -37
45 -3 28 9 34 42 21z m-4245 -11 c-4 -23 3 -33 24 -33 19 -1 20 -2 5 -11 -12
-7 -24 -6 -38 1 -23 12 -27 50 -5 50 8 0 14 -3 14 -7z m-63 -49 c-4 -10 0 -18
12 -21 20 -5 48 -43 32 -43 -5 0 -20 10 -31 21 -18 18 -25 20 -40 10 -22 -13
-25 0 -7 29 15 24 43 27 34 4z m753 -156 c63 -165 72 -207 78 -378 4 -130 1
-172 -15 -256 -39 -196 -86 -284 -289 -540 -24 -30 -43 -56 -43 -59 0 -3 -13
-24 -30 -47 -16 -22 -30 -45 -30 -49 0 -5 -13 -37 -29 -71 -61 -135 -83 -234
-89 -402 -4 -132 -3 -141 23 -207 22 -58 39 -80 105 -143 62 -57 96 -81 154
-105 126 -52 207 -64 404 -59 194 5 177 14 165 -81 l-6 -53 -181 4 c-213 6
-311 26 -440 89 -114 55 -175 114 -230 219 -24 47 -51 108 -59 135 -15 46 -39
213 -32 225 1 3 6 46 9 95 10 126 82 355 145 460 30 50 134 192 184 251 20 25
37 49 37 53 0 5 16 28 34 53 34 44 52 85 103 238 23 68 26 90 25 230 0 85 -5
186 -11 224 -13 73 -58 222 -74 243 -6 9 -2 19 14 32 13 11 27 17 30 13 3 -4
25 -55 48 -114z m-783 75 c-7 -7 -26 7 -26 19 0 6 6 6 15 -2 9 -7 13 -15 11
-17z m7074 -29 c11 -12 11 -18 -2 -30 -13 -13 -16 -12 -32 5 -19 21 -14 41 8
41 8 0 19 -7 26 -16z m-3238 -240 c14 -14 20 -15 33 -4 21 18 79 0 162 -50 97
-60 345 -125 589 -156 l52 -6 -33 -72 c-18 -39 -45 -105 -59 -146 -15 -41 -36
-90 -47 -109 -11 -19 -36 -75 -56 -125 -44 -110 -151 -320 -198 -384 -108
-151 -187 -197 -327 -194 -117 3 -195 31 -251 90 -24 27 -52 63 -61 81 -26 48
-56 178 -56 235 0 68 23 193 53 291 14 44 57 189 97 323 40 133 75 242 78 242
3 0 14 -7 24 -16z m3144 -31 c-7 -17 -8 -17 -17 0 -12 21 -2 44 13 29 6 -6 8
-19 4 -29z m1284 7 c0 -4 9 -10 20 -13 16 -4 18 -10 11 -35 -5 -16 -7 -51 -5
-78 2 -27 1 -43 -2 -36 -3 6 -10 10 -15 6 -5 -3 -14 8 -20 25 -7 21 -19 32
-40 36 -27 6 -29 10 -27 43 2 21 7 42 12 47 10 12 66 16 66 5z m-8822 -77
c-23 -28 -65 -122 -79 -179 -15 -64 -1 -107 43 -130 30 -15 49 -30 101 -76
l30 -26 -44 -11 c-24 -7 -70 -18 -102 -27 -32 -8 -89 -18 -127 -21 l-70 -6
-57 -62 c-32 -34 -74 -81 -94 -104 -26 -30 -43 -41 -63 -41 -24 0 -28 3 -23
23 11 46 26 93 43 138 27 71 16 79 -110 79 -56 0 -116 -4 -134 -9 -28 -9 -32
-7 -32 10 0 11 11 24 25 31 14 6 25 16 25 22 0 7 43 25 96 40 52 16 106 38
119 48 l25 19 -46 92 c-48 94 -77 167 -70 174 5 5 56 -19 56 -27 0 -10 153
-109 188 -121 28 -10 39 -7 106 31 42 22 85 53 96 68 22 29 89 81 104 82 5 0
2 -8 -6 -17z m7356 -57 c-3 -8 -13 -12 -25 -9 -27 7 -24 23 6 23 17 0 23 -4
19 -14z m836 -271 c29 -35 -15 -72 -52 -43 -12 10 -14 19 -7 36 10 25 41 29
59 7z m-6155 -245 c6 -20 5 -23 -6 -12 -7 6 -22 12 -33 12 -16 0 -18 2 -7 9 7
5 11 13 7 19 -3 6 0 12 6 15 14 5 22 -5 33 -43z m5487 -2 c-9 -9 -12 -7 -12
12 0 19 3 21 12 12 9 -9 9 -15 0 -24z m-35 -24 c9 -23 -11 -38 -34 -25 -10 6
-12 11 -5 11 6 0 12 7 12 15 0 20 19 19 27 -1z m-7188 -185 c-37 -28 -59 -23
-24 5 16 13 34 22 39 19 5 -3 -2 -14 -15 -24z m4808 -31 c17 -19 17 -20 -2
-34 -40 -29 -94 -8 -95 38 0 25 73 22 97 -4z m1114 -95 c36 -22 38 -54 4 -70
-38 -17 -60 -7 -62 29 -2 28 11 58 24 58 3 0 18 -8 34 -17z m1155 -280 c282
-284 540 -554 607 -636 30 -37 72 -82 94 -99 21 -18 60 -57 87 -88 102 -114
333 -358 404 -425 40 -38 123 -118 183 -177 61 -60 115 -108 120 -108 5 0 9
-4 9 -10 0 -5 -5 -10 -11 -10 -7 0 -47 -18 -90 -40 -44 -22 -107 -51 -142 -64
-34 -14 -123 -50 -197 -81 -228 -95 -380 -155 -495 -195 -60 -21 -135 -47
-165 -59 -30 -11 -113 -41 -185 -67 -135 -48 -271 -98 -390 -144 -178 -70
-336 -133 -395 -160 -112 -50 -107 -51 -182 32 -165 182 -346 401 -461 558
-92 125 -151 199 -232 293 -33 38 -74 87 -91 108 -18 22 -72 83 -122 137 -49
53 -100 109 -113 123 -74 82 -89 98 -101 106 -7 4 -33 34 -57 66 -24 31 -46
57 -50 57 -4 0 -24 24 -46 53 -21 28 -68 84 -104 122 -37 39 -86 95 -111 125
-25 30 -59 69 -76 87 l-30 31 25 12 c14 7 87 32 161 56 74 25 144 49 155 54
45 20 483 157 760 236 50 14 122 36 160 49 115 38 268 87 300 95 17 5 86 24
155 44 69 20 152 43 185 52 33 10 80 25 105 34 68 26 104 38 117 39 7 1 105
-92 219 -206z m-8264 106 c4 -23 1 -25 -28 -26 -29 -1 -32 2 -36 33 -3 29 -1
33 14 28 10 -3 18 0 18 6 0 20 26 -14 32 -41z m985 -202 c12 -7 11 -63 -1 -61
-3 1 -22 5 -42 9 -28 5 -33 9 -25 19 6 8 9 20 6 27 -6 15 40 20 62 6z m8549
-70 c-8 -35 -33 -41 -67 -16 -42 30 -39 57 9 61 46 4 67 -12 58 -45z m-5378
-39 c7 -7 12 -24 12 -38 0 -35 -17 -50 -57 -50 -38 0 -57 26 -47 64 8 32 69
47 92 24z m-1704 -20 c13 -22 -14 -54 -38 -45 -16 6 -22 48 -9 61 11 11 35 3
47 -16z m525 -98 c7 0 41 -26 76 -57 78 -72 258 -175 347 -198 62 -16 85 -16
146 1 17 5 22 2 22 -13 0 -10 -4 -23 -9 -28 -9 -11 -95 -216 -106 -255 -7 -25
-11 -35 -63 -150 -69 -155 -201 -313 -305 -365 -135 -67 -312 6 -366 151 -24
63 -41 163 -41 244 0 78 35 262 70 366 17 48 30 96 30 105 0 10 22 64 50 122
27 58 52 117 56 131 l6 27 38 -41 c20 -22 43 -40 49 -40z m6921 -80 c12 -36
11 -42 -5 -60 -24 -26 -62 -26 -70 0 -3 11 -9 20 -13 20 -4 0 -7 14 -6 32 1
33 18 46 60 47 16 1 24 -9 34 -39z m-3951 -172 c36 -39 87 -93 114 -120 26
-27 78 -86 115 -131 36 -45 69 -84 72 -87 3 -3 37 -41 75 -84 39 -44 99 -109
135 -145 36 -36 76 -80 89 -96 13 -17 49 -57 80 -90 31 -34 70 -79 88 -100 18
-22 44 -53 58 -70 15 -16 36 -43 48 -58 12 -15 34 -42 50 -59 15 -17 27 -35
27 -39 0 -4 6 -14 13 -21 20 -20 106 -129 162 -204 66 -88 206 -258 217 -262
4 -2 8 -8 8 -14 0 -5 12 -22 28 -38 15 -16 36 -40 47 -54 34 -44 55 -70 81
-98 13 -15 24 -30 24 -33 0 -3 15 -20 34 -37 l34 -31 -20 -51 c-48 -120 -166
-543 -180 -644 -3 -22 -13 -15 -109 70 -58 51 -137 124 -176 161 -39 38 -83
78 -98 90 -15 12 -46 39 -69 60 -22 22 -56 50 -74 64 -18 14 -49 41 -70 61
-20 19 -68 58 -107 87 -38 29 -79 62 -90 75 -11 12 -40 37 -65 55 -25 18 -76
63 -115 100 -38 37 -86 79 -105 93 -99 77 -509 486 -536 536 -12 21 -14 43
-10 80 4 28 9 74 11 101 3 28 7 61 10 75 2 14 7 45 10 70 3 25 8 56 10 70 6
32 41 334 55 465 10 101 50 325 58 325 3 0 34 -32 71 -72z m-1838 26 c-63 -80
-194 -124 -368 -124 -64 0 -112 5 -126 13 -12 6 -23 13 -25 13 -1 1 2 13 7 28
9 22 17 26 49 26 21 0 92 12 157 26 66 14 138 29 160 34 22 4 68 8 103 9 l63
1 -20 -26z m133 -68 c89 -84 148 -126 244 -173 28 -14 52 -32 52 -40 0 -11 7
-13 25 -9 14 4 25 2 25 -4 0 -5 5 -10 10 -10 6 0 40 -13 75 -30 35 -16 70 -30
78 -30 7 0 17 -4 23 -9 5 -4 30 -16 57 -26 26 -10 47 -21 47 -24 0 -4 -20 -37
-44 -74 -24 -37 -53 -81 -65 -99 -11 -18 -43 -64 -71 -103 -70 -96 -146 -204
-201 -287 -69 -103 -157 -198 -203 -219 -56 -25 -149 -24 -231 3 -53 17 -73
30 -104 67 -61 73 -72 104 -77 205 -4 75 -1 107 19 181 57 210 133 425 196
555 28 58 51 110 51 115 0 21 31 54 45 48 9 -3 30 -19 49 -37z m-2984 -188
c-4 -48 -2 -51 36 -44 32 7 35 5 26 -11 -6 -10 -7 -24 -1 -34 6 -13 3 -18 -13
-23 -13 -3 -26 0 -30 7 -6 9 -10 8 -18 -3 -7 -11 -10 -12 -10 -2 0 9 -7 11
-20 7 -25 -8 -26 2 -3 28 17 18 17 19 0 28 -21 12 -22 29 -3 29 8 0 18 9 21
20 9 27 17 25 15 -2z m3705 -308 c36 -93 69 -236 81 -355 13 -127 -16 -258
-116 -525 -55 -146 -62 -183 -58 -309 3 -105 6 -124 36 -196 39 -93 128 -210
201 -265 74 -56 227 -128 311 -147 53 -12 120 -17 225 -17 164 1 242 14 465
79 63 19 160 46 215 60 106 27 191 59 292 108 l62 30 40 -33 c23 -17 41 -35
41 -39 0 -25 -381 -166 -605 -224 -231 -59 -418 -88 -585 -88 -234 0 -440 83
-605 245 -70 69 -90 96 -129 178 -53 109 -86 242 -86 351 0 69 11 121 55 252
21 63 36 105 106 295 12 30 25 73 31 95 16 64 2 285 -28 443 -23 118 -25 144
-14 157 18 21 22 15 65 -95z m-3025 -452 c0 -16 -3 -19 -11 -11 -6 6 -8 16 -5
22 11 17 16 13 16 -11z m-55 2 c3 -5 -1 -10 -9 -10 -9 0 -16 5 -16 10 0 6 4
10 9 10 6 0 13 -4 16 -10z m7920 -257 c5 -149 4 -253 -4 -328 -19 -174 -13
-162 -89 -185 -37 -11 -80 -26 -97 -34 -49 -23 -78 -34 -118 -46 -20 -6 -73
-29 -116 -50 -44 -21 -117 -52 -163 -69 -45 -17 -144 -53 -218 -81 -74 -28
-223 -82 -330 -120 -107 -37 -285 -100 -395 -140 -110 -39 -245 -87 -300 -106
-55 -18 -134 -45 -175 -59 -41 -15 -118 -39 -170 -54 -107 -31 -132 -43 -169
-77 -14 -13 -36 -24 -49 -24 -18 0 -21 4 -18 23 3 12 10 49 16 82 6 33 17 89
25 125 8 36 16 81 20 101 3 20 16 48 30 61 23 23 32 54 66 217 5 25 17 56 26
70 10 14 18 32 19 39 4 23 25 41 57 48 17 3 130 47 252 96 121 49 285 113 365
142 80 29 167 63 194 74 27 12 58 24 70 27 12 2 73 22 136 45 63 22 155 55
204 72 49 17 101 37 115 44 14 8 32 14 40 14 15 0 315 122 408 166 28 13 55
24 58 24 5 0 86 33 270 110 11 5 23 9 26 9 4 1 10 -97 14 -216z m-7858 171
c10 -21 9 -25 -1 -21 -8 3 -30 2 -49 -3 -27 -6 -37 -4 -41 7 -9 21 15 42 49
43 23 0 33 -6 42 -26z m748 -344 c-3 -5 -10 -10 -16 -10 -5 0 -9 5 -9 10 0 6
7 10 16 10 8 0 12 -4 9 -10z m2748 -43 c33 -28 33 -33 5 -63 -47 -49 -111 -16
-100 54 4 28 8 32 37 32 19 0 43 -9 58 -23z m-2664 -263 c19 -15 24 -87 5 -80
-8 3 -20 -5 -29 -17 -13 -19 -15 -19 -15 -3 0 14 -6 17 -23 14 -18 -3 -22 1
-24 20 0 14 -6 28 -12 31 -7 4 -3 12 9 21 11 8 20 20 20 27 0 7 6 10 14 7 8
-3 18 0 22 7 6 10 9 10 12 -1 3 -8 12 -20 21 -26z m1040 -5 c28 -27 13 -49
-35 -49 -28 0 -33 3 -32 23 3 48 31 60 67 26z m-2622 -525 c-3 -3 -12 -4 -19
-1 -8 3 -5 6 6 6 11 1 17 -2 13 -5z m41 -28 c-4 -29 -22 -23 -26 9 -3 19 0 24
13 19 9 -4 15 -15 13 -28z m1049 -100 c-6 -12 -10 -24 -9 -28 5 -18 -37 -6
-43 12 -9 27 -2 35 34 36 28 1 29 -1 18 -20z m-62 -36 c-3 -5 2 -21 11 -35 15
-23 15 -25 0 -25 -9 0 -16 -4 -16 -10 0 -5 -7 -10 -15 -10 -23 0 -18 20 8 29
19 8 20 10 5 16 -21 8 -24 31 -5 38 18 8 19 8 12 -3z m109 -9 c17 -18 16 -20
-4 -26 -25 -8 -25 -8 -34 23 -9 28 14 30 38 3z m1436 -168 c0 -18 -38 -26 -53
-12 -20 19 11 49 36 35 9 -6 17 -16 17 -23z"/>
<path d="M8068 7351 c-14 -11 -31 -34 -38 -51 -10 -25 -10 -34 4 -55 9 -14 21
-25 26 -25 6 0 10 -9 10 -20 0 -34 26 -22 49 23 8 15 15 48 15 73 1 36 -4 49
-20 60 -18 13 -24 12 -46 -5z m12 -32 c-7 -11 -14 -18 -17 -15 -3 3 0 12 7 21
18 21 23 19 10 -6z m-10 -55 c0 -8 -5 -14 -11 -14 -5 0 -7 5 -4 10 3 6 1 10
-5 10 -6 0 -8 5 -5 10 8 13 25 3 25 -16z"/>
<path d="M1465 7610 c-78 -16 -178 -107 -215 -194 -30 -70 -55 -274 -44 -347
10 -60 59 -176 93 -219 15 -19 30 -43 34 -52 3 -9 24 -22 46 -29 34 -10 47 -9
84 5 51 19 77 44 105 101 83 167 119 321 108 466 -6 82 -15 115 -52 196 -26
57 -90 87 -159 73z m110 -80 c10 -16 -10 -35 -72 -70 -60 -34 -173 -66 -198
-56 -14 5 -14 8 0 29 16 25 42 39 155 81 71 27 105 32 115 16z m33 -120 c4
-25 -94 -77 -159 -85 -55 -6 -189 11 -189 24 0 3 19 5 43 3 64 -5 155 14 217
47 60 31 83 34 88 11z m22 -130 c0 -25 -5 -30 -37 -40 -62 -17 -253 -24 -300
-11 -39 11 -43 15 -43 42 0 24 4 29 18 25 101 -31 171 -32 272 -7 41 11 78 20
83 20 4 1 7 -12 7 -29z m-163 -120 c39 1 87 5 105 11 50 14 55 12 50 -21 -7
-48 -44 -65 -137 -64 -68 0 -86 4 -122 27 -23 14 -44 31 -48 37 -3 5 -11 10
-17 10 -7 0 -7 -4 1 -14 9 -11 5 -11 -25 -2 -33 10 -34 11 -10 14 14 2 26 7
26 11 0 4 24 4 53 -1 28 -5 84 -9 124 -8z m0 -125 c55 0 99 -4 96 -8 -11 -18
-97 -47 -141 -47 -34 0 -57 7 -86 27 -88 60 -108 112 -23 60 49 -30 57 -32
154 -32z m-142 -44 c12 -20 119 -43 170 -37 l50 5 -24 -19 c-32 -28 -86 -25
-146 6 -55 29 -87 54 -68 54 7 0 14 -4 18 -9z m112 -106 c65 -6 72 -9 63 -24
-13 -25 -84 -55 -114 -47 -21 5 -96 91 -96 110 0 4 17 -2 38 -13 20 -10 70
-22 109 -26z"/>
<path d="M4760 6284 c-24 -13 -23 -14 22 -14 51 0 72 14 35 24 -27 7 -26 7
-57 -10z"/>
<path d="M8295 3034 c-27 -14 -57 -32 -66 -40 -8 -8 -21 -14 -27 -14 -21 0
-15 -167 8 -229 26 -71 57 -103 125 -125 48 -17 60 -18 94 -6 22 7 58 30 80
51 40 37 41 39 41 106 0 111 -47 227 -106 263 -42 27 -89 25 -149 -6z m28 -58
c4 -9 -7 -23 -28 -37 -18 -13 -32 -26 -30 -29 2 -4 -6 -28 -19 -56 l-23 -49 1
64 c2 61 3 64 41 92 44 33 51 35 58 15z m52 -297 c30 -7 52 -16 49 -21 -9 -14
-71 -9 -84 7 -7 8 -21 15 -31 15 -22 0 -49 26 -49 47 0 11 8 8 30 -10 16 -14
54 -31 85 -38z"/>
<path d="M7950 2941 c0 -14 -6 -21 -19 -21 -24 0 -61 -43 -91 -105 -29 -59
-32 -164 -7 -211 50 -95 185 -121 258 -51 86 84 91 176 16 310 -23 42 -95 83
-128 74 -11 -3 -17 -1 -14 3 3 5 1 11 -5 15 -5 3 -10 -3 -10 -14z"/>
<path d="M7811 2862 c-13 -25 -14 -52 -2 -52 8 0 22 61 16 68 -2 2 -8 -5 -14
-16z"/>
<path d="M7790 2779 c0 -5 5 -7 10 -4 6 3 10 8 10 11 0 2 -4 4 -10 4 -5 0 -10
-5 -10 -11z"/>
<path d="M7411 2736 c-24 -24 -50 -42 -57 -39 -11 4 -13 -18 -11 -112 l2 -116
47 -45 c26 -24 57 -45 70 -45 13 -1 37 -2 53 -3 31 -2 87 23 118 53 48 46 51
166 6 258 -32 66 -70 93 -133 93 -48 0 -55 -3 -95 -44z m98 -66 l0 -35 -13 30
c-7 17 -11 36 -8 43 2 6 -1 12 -8 12 -6 0 -8 5 -5 11 12 18 34 -23 34 -61z
m-57 23 c-6 -3 -10 -8 -7 -13 3 -5 -1 -15 -9 -22 -8 -8 -16 -21 -19 -29 -2 -8
-3 -1 -1 15 4 31 33 71 43 60 3 -4 0 -9 -7 -11z m118 -33 c0 -5 -4 -10 -10
-10 -5 0 -10 5 -10 10 0 6 5 10 10 10 6 0 10 -4 10 -10z m-65 -60 c-3 -5 -13
-10 -21 -10 -8 0 -12 5 -9 10 3 6 13 10 21 10 8 0 12 -4 9 -10z m-5 -40 c0 -4
-6 -13 -14 -19 -12 -10 -17 -8 -25 7 -6 11 -8 22 -5 25 7 7 44 -4 44 -13z
m-45 -70 c3 -6 -1 -7 -9 -4 -18 7 -21 14 -7 14 6 0 13 -4 16 -10z m25 -60 c12
-8 10 -10 -10 -10 -14 0 -32 5 -40 10 -12 8 -10 10 10 10 14 0 32 -5 40 -10z"/>
<path d="M7364 2728 l-19 -23 23 19 c21 18 27 26 19 26 -2 0 -12 -10 -23 -22z"/>
<path d="M6925 2631 c-61 -12 -139 -81 -154 -137 -18 -65 -13 -110 19 -175 32
-62 82 -120 138 -159 29 -19 43 -22 106 -18 112 5 157 42 204 168 10 25 17 56
16 68 -3 44 -28 107 -52 126 -14 11 -21 24 -17 36 6 19 -19 45 -34 35 -6 -3
-21 3 -33 14 -22 21 -112 52 -145 50 -10 -1 -32 -4 -48 -8z m110 -74 c26 -8
61 -33 98 -69 52 -52 57 -61 57 -101 0 -78 -71 -177 -127 -177 -16 0 -34 -5
-39 -10 -15 -15 -125 43 -141 72 -65 124 -75 198 -33 244 48 51 109 65 185 41z"/>
<path d="M7023 2539 c-6 -6 -29 -13 -50 -14 -21 -1 -44 -3 -50 -4 -7 0 -24
-19 -38 -41 -23 -36 -24 -44 -15 -87 11 -49 65 -124 103 -145 38 -20 85 -17
108 8 12 12 27 20 34 17 8 -2 21 7 31 21 36 57 -9 195 -72 218 -19 6 -35 18
-36 25 -2 11 -6 12 -15 2z m24 -70 c20 -17 56 -89 44 -89 -15 0 -41 30 -41 46
0 8 -6 14 -14 14 -8 0 -18 9 -21 21 -10 29 -59 23 -63 -9 -5 -34 15 -83 47
-118 29 -31 29 -60 0 -49 -24 9 -69 90 -69 124 0 18 -5 31 -12 31 -7 1 1 12
17 26 32 27 81 28 112 3z m1 -89 c9 -5 29 -14 45 -20 18 -6 27 -17 27 -30 0
-20 -3 -19 -37 9 -21 17 -43 31 -50 31 -7 0 -13 5 -13 10 0 13 6 13 28 0z"/>
<path d="M8785 2491 c-82 -29 -219 -81 -240 -90 -11 -5 -40 -16 -65 -23 -80
-26 -274 -91 -295 -99 -11 -4 -38 -15 -60 -24 -22 -9 -83 -30 -135 -47 -140
-44 -144 -46 -184 -87 l-37 -38 12 -49 c7 -27 23 -65 35 -84 12 -19 28 -55 34
-80 6 -25 28 -88 49 -140 21 -52 48 -124 61 -160 13 -36 29 -72 36 -81 8 -8
17 -31 20 -50 4 -19 26 -61 50 -94 24 -33 50 -70 58 -82 17 -24 15 -24 131 16
33 12 69 26 79 32 25 14 118 47 181 63 53 14 84 26 150 56 22 11 92 38 155 61
63 22 129 47 145 54 17 7 53 23 80 35 28 12 82 32 120 45 76 25 220 97 247
123 16 16 15 21 -8 76 -23 54 -85 157 -147 246 -14 19 -25 40 -26 45 -1 6 -15
24 -30 40 -34 36 -129 156 -192 243 -82 112 -123 129 -224 93z m126 -62 c16
-8 18 -13 9 -25 -15 -17 -6 -44 13 -44 20 0 53 -39 41 -49 -5 -4 -38 -16 -74
-25 -36 -10 -75 -22 -88 -27 -13 -5 -28 -9 -35 -8 -15 0 -52 46 -61 77 -6 18
-4 22 13 22 27 0 51 10 51 22 0 5 -8 7 -17 5 -65 -18 -73 -18 -73 2 0 11 9 21
23 24 12 3 45 12 72 20 61 19 100 20 126 6z m-371 -119 c0 -5 21 -37 47 -70
29 -37 43 -64 37 -70 -5 -5 -61 -24 -124 -43 -63 -19 -121 -36 -129 -38 -9 -3
-27 21 -50 66 -20 39 -40 73 -44 76 -7 5 26 17 203 73 56 18 60 18 60 6z m625
-213 c19 -22 35 -44 35 -49 0 -4 -13 -8 -30 -8 -28 0 -46 -6 -148 -51 -23 -11
-56 -19 -72 -19 -26 0 -33 8 -70 82 -22 45 -46 88 -52 95 -8 10 10 23 88 59
55 26 103 53 107 61 7 11 21 -4 58 -58 27 -39 65 -90 84 -112z m-1003 90 c-9
-10 -6 -17 8 -30 11 -9 20 -28 20 -42 0 -14 5 -25 11 -25 5 0 7 -5 4 -10 -4
-6 -1 -18 6 -26 14 -18 15 -17 -41 -37 -25 -8 -80 -28 -122 -43 l-77 -27 -20
24 c-11 13 -32 46 -46 74 l-26 49 23 17 c12 10 56 27 98 39 41 12 91 27 110
35 48 18 66 19 52 2z m573 -153 c22 -30 50 -68 63 -83 30 -39 28 -49 -13 -57
-19 -3 -48 -20 -65 -37 -16 -17 -30 -25 -30 -18 0 9 -7 11 -22 6 -13 -3 -28
-7 -35 -7 -7 -1 -10 -5 -7 -9 3 -5 -8 -12 -23 -15 -15 -4 -40 -16 -55 -27 -15
-12 -29 -19 -31 -16 -12 14 -56 98 -62 119 -5 14 -19 42 -32 63 -14 22 -23 40
-21 41 2 1 26 11 53 20 50 18 127 51 155 67 8 4 31 8 50 8 31 0 39 -6 75 -55z
m538 -106 c15 -20 27 -43 27 -51 0 -8 9 -26 20 -39 18 -24 18 -26 2 -41 -23
-20 -98 -53 -142 -62 -19 -4 -50 -16 -68 -27 l-33 -20 -17 23 c-9 12 -31 53
-49 91 -35 76 -35 78 37 93 19 4 68 25 109 46 41 22 78 36 81 32 3 -5 18 -25
33 -45z m-920 -87 l47 -89 -31 -11 c-18 -6 -39 -11 -47 -11 -9 0 -63 -24 -121
-54 -58 -29 -120 -56 -136 -60 -29 -6 -32 -4 -56 46 -53 108 -48 135 31 177
21 11 47 27 58 36 10 9 54 31 98 49 95 40 92 42 157 -83z m590 -118 c26 -41
47 -77 47 -81 0 -5 -75 -38 -167 -74 -190 -74 -198 -74 -221 4 -21 75 -20 87
13 106 16 9 34 22 40 28 20 21 62 33 74 21 12 -12 52 17 48 36 -3 18 85 56
103 44 9 -5 37 -43 63 -84z m-459 -139 c6 -27 18 -55 28 -62 34 -25 22 -42
-29 -42 -27 0 -64 -5 -83 -10 -125 -33 -193 -59 -221 -85 l-33 -28 -25 31
c-28 32 -57 114 -47 130 8 14 92 52 124 57 15 2 47 7 72 10 25 4 54 10 65 15
40 16 120 38 130 36 6 -1 14 -25 19 -52z"/>
</g>
</svg>
